<mxfile host="app.diagrams.net" modified="2023-04-03T15:29:52.849Z" agent="Mozilla/5.0 (Windows NT 10.0; Win64; x64) AppleWebKit/537.36 (KHTML, like Gecko) Chrome/111.0.0.0 Safari/537.36" etag="AQCOCKdjXRQz_buU6p7g" version="21.1.4">
  <diagram name="Page-1" id="_6FbyBrVucVqYGq4T1mW">
    <mxGraphModel dx="1122" dy="426" grid="1" gridSize="10" guides="1" tooltips="1" connect="1" arrows="1" fold="1" page="1" pageScale="1" pageWidth="827" pageHeight="1169" math="0" shadow="0">
      <root>
        <mxCell id="0" />
        <mxCell id="1" parent="0" />
        <mxCell id="fhB9XdhHFG8bIDAir9oc-1" value="Next.js Frontend" style="rounded=1;whiteSpace=wrap;html=1;fillColor=#FFFFCC;" vertex="1" parent="1">
          <mxGeometry x="140" y="60" width="120" height="60" as="geometry" />
        </mxCell>
        <mxCell id="fhB9XdhHFG8bIDAir9oc-2" value="" style="endArrow=none;dashed=1;html=1;dashPattern=1 3;strokeWidth=2;rounded=0;" edge="1" parent="1">
          <mxGeometry width="50" height="50" relative="1" as="geometry">
            <mxPoint x="360" y="510" as="sourcePoint" />
            <mxPoint x="360" y="10" as="targetPoint" />
          </mxGeometry>
        </mxCell>
        <mxCell id="fhB9XdhHFG8bIDAir9oc-3" value="Next.js Backend" style="rounded=1;whiteSpace=wrap;html=1;fillColor=#FFFFCC;" vertex="1" parent="1">
          <mxGeometry x="460" y="60" width="120" height="60" as="geometry" />
        </mxCell>
        <mxCell id="fhB9XdhHFG8bIDAir9oc-4" value="" style="endArrow=none;dashed=1;html=1;dashPattern=1 3;strokeWidth=2;rounded=0;" edge="1" parent="1">
          <mxGeometry width="50" height="50" relative="1" as="geometry">
            <mxPoint x="830" y="510" as="sourcePoint" />
            <mxPoint x="830" y="10" as="targetPoint" />
          </mxGeometry>
        </mxCell>
        <mxCell id="fhB9XdhHFG8bIDAir9oc-5" value="Smart Contract&lt;br&gt;(Sepolia&lt;span style=&quot;background-color: initial;&quot;&gt;)&lt;/span&gt;" style="rounded=1;whiteSpace=wrap;html=1;fillColor=#FFFFCC;" vertex="1" parent="1">
          <mxGeometry x="1065" y="60" width="120" height="60" as="geometry" />
        </mxCell>
        <mxCell id="fhB9XdhHFG8bIDAir9oc-6" value="Home" style="rounded=1;whiteSpace=wrap;html=1;" vertex="1" parent="1">
          <mxGeometry x="140" y="190" width="120" height="60" as="geometry" />
        </mxCell>
        <mxCell id="fhB9XdhHFG8bIDAir9oc-11" style="edgeStyle=orthogonalEdgeStyle;rounded=0;orthogonalLoop=1;jettySize=auto;html=1;entryX=0.5;entryY=1;entryDx=0;entryDy=0;exitX=1;exitY=0.5;exitDx=0;exitDy=0;" edge="1" parent="1" source="fhB9XdhHFG8bIDAir9oc-7" target="fhB9XdhHFG8bIDAir9oc-12">
          <mxGeometry relative="1" as="geometry">
            <mxPoint x="370" y="320" as="sourcePoint" />
            <mxPoint x="500" y="320" as="targetPoint" />
          </mxGeometry>
        </mxCell>
        <mxCell id="fhB9XdhHFG8bIDAir9oc-33" style="edgeStyle=orthogonalEdgeStyle;rounded=0;orthogonalLoop=1;jettySize=auto;html=1;entryX=0;entryY=0.5;entryDx=0;entryDy=0;" edge="1" parent="1" source="fhB9XdhHFG8bIDAir9oc-7" target="fhB9XdhHFG8bIDAir9oc-6">
          <mxGeometry relative="1" as="geometry">
            <Array as="points">
              <mxPoint x="120" y="320" />
              <mxPoint x="120" y="220" />
            </Array>
          </mxGeometry>
        </mxCell>
        <mxCell id="fhB9XdhHFG8bIDAir9oc-7" value="Properties" style="rounded=1;whiteSpace=wrap;html=1;" vertex="1" parent="1">
          <mxGeometry x="140" y="290" width="120" height="60" as="geometry" />
        </mxCell>
        <mxCell id="fhB9XdhHFG8bIDAir9oc-17" style="edgeStyle=orthogonalEdgeStyle;rounded=0;orthogonalLoop=1;jettySize=auto;html=1;entryX=0.5;entryY=1;entryDx=0;entryDy=0;exitX=0.996;exitY=0.092;exitDx=0;exitDy=0;exitPerimeter=0;" edge="1" parent="1" source="fhB9XdhHFG8bIDAir9oc-8" target="fhB9XdhHFG8bIDAir9oc-16">
          <mxGeometry relative="1" as="geometry">
            <mxPoint x="370" y="405" as="sourcePoint" />
            <Array as="points" />
          </mxGeometry>
        </mxCell>
        <mxCell id="fhB9XdhHFG8bIDAir9oc-34" style="edgeStyle=orthogonalEdgeStyle;rounded=0;orthogonalLoop=1;jettySize=auto;html=1;entryX=0;entryY=0.5;entryDx=0;entryDy=0;" edge="1" parent="1" source="fhB9XdhHFG8bIDAir9oc-8" target="fhB9XdhHFG8bIDAir9oc-6">
          <mxGeometry relative="1" as="geometry">
            <Array as="points">
              <mxPoint x="120" y="420" />
              <mxPoint x="120" y="220" />
            </Array>
          </mxGeometry>
        </mxCell>
        <mxCell id="fhB9XdhHFG8bIDAir9oc-40" style="edgeStyle=orthogonalEdgeStyle;rounded=0;orthogonalLoop=1;jettySize=auto;html=1;entryX=0.696;entryY=1;entryDx=0;entryDy=0;entryPerimeter=0;" edge="1" parent="1" source="fhB9XdhHFG8bIDAir9oc-8" target="fhB9XdhHFG8bIDAir9oc-36">
          <mxGeometry relative="1" as="geometry" />
        </mxCell>
        <mxCell id="fhB9XdhHFG8bIDAir9oc-8" value="Trade" style="rounded=1;whiteSpace=wrap;html=1;" vertex="1" parent="1">
          <mxGeometry x="140" y="390" width="120" height="160" as="geometry" />
        </mxCell>
        <mxCell id="fhB9XdhHFG8bIDAir9oc-47" style="edgeStyle=orthogonalEdgeStyle;rounded=0;orthogonalLoop=1;jettySize=auto;html=1;entryX=0.25;entryY=1;entryDx=0;entryDy=0;" edge="1" parent="1" source="fhB9XdhHFG8bIDAir9oc-12" target="fhB9XdhHFG8bIDAir9oc-45">
          <mxGeometry relative="1" as="geometry" />
        </mxCell>
        <mxCell id="fhB9XdhHFG8bIDAir9oc-12" value="Properties API" style="rounded=1;whiteSpace=wrap;html=1;direction=south;" vertex="1" parent="1">
          <mxGeometry x="510" y="300" width="100" height="40" as="geometry" />
        </mxCell>
        <mxCell id="fhB9XdhHFG8bIDAir9oc-48" style="edgeStyle=orthogonalEdgeStyle;rounded=0;orthogonalLoop=1;jettySize=auto;html=1;entryX=0.75;entryY=1;entryDx=0;entryDy=0;" edge="1" parent="1" source="fhB9XdhHFG8bIDAir9oc-16" target="fhB9XdhHFG8bIDAir9oc-45">
          <mxGeometry relative="1" as="geometry" />
        </mxCell>
        <mxCell id="fhB9XdhHFG8bIDAir9oc-16" value="Trade API" style="rounded=1;whiteSpace=wrap;html=1;direction=south;" vertex="1" parent="1">
          <mxGeometry x="510" y="380" width="100" height="50" as="geometry" />
        </mxCell>
        <mxCell id="fhB9XdhHFG8bIDAir9oc-22" value="GET&amp;nbsp;/api/properties" style="rounded=0;whiteSpace=wrap;html=1;" vertex="1" parent="1">
          <mxGeometry x="302" y="293" width="110" height="20" as="geometry" />
        </mxCell>
        <mxCell id="fhB9XdhHFG8bIDAir9oc-23" value="GET&amp;nbsp;/api/trade/${contractAddress}" style="rounded=0;whiteSpace=wrap;html=1;" vertex="1" parent="1">
          <mxGeometry x="280" y="380" width="208" height="20" as="geometry" />
        </mxCell>
        <mxCell id="fhB9XdhHFG8bIDAir9oc-26" style="edgeStyle=orthogonalEdgeStyle;rounded=0;orthogonalLoop=1;jettySize=auto;html=1;entryX=0.126;entryY=1.006;entryDx=0;entryDy=0;exitX=0.198;exitY=0.013;exitDx=0;exitDy=0;entryPerimeter=0;exitPerimeter=0;" edge="1" parent="1" source="fhB9XdhHFG8bIDAir9oc-45" target="fhB9XdhHFG8bIDAir9oc-36">
          <mxGeometry relative="1" as="geometry">
            <mxPoint x="670" y="389.40999999999997" as="sourcePoint" />
            <mxPoint x="910" y="389.40999999999997" as="targetPoint" />
          </mxGeometry>
        </mxCell>
        <mxCell id="fhB9XdhHFG8bIDAir9oc-27" style="edgeStyle=orthogonalEdgeStyle;rounded=0;orthogonalLoop=1;jettySize=auto;html=1;entryX=0.262;entryY=0.996;entryDx=0;entryDy=0;exitX=0.787;exitY=0.014;exitDx=0;exitDy=0;exitPerimeter=0;entryPerimeter=0;" edge="1" parent="1" source="fhB9XdhHFG8bIDAir9oc-45" target="fhB9XdhHFG8bIDAir9oc-36">
          <mxGeometry relative="1" as="geometry">
            <mxPoint x="670" y="419.40999999999997" as="sourcePoint" />
            <mxPoint x="910" y="419.40999999999997" as="targetPoint" />
          </mxGeometry>
        </mxCell>
        <mxCell id="fhB9XdhHFG8bIDAir9oc-28" value="getInfo()" style="rounded=0;whiteSpace=wrap;html=1;" vertex="1" parent="1">
          <mxGeometry x="810" y="313" width="110" height="20" as="geometry" />
        </mxCell>
        <mxCell id="fhB9XdhHFG8bIDAir9oc-35" value="Redirect to Home page if wallet is not connected" style="text;html=1;strokeColor=none;fillColor=none;align=center;verticalAlign=middle;whiteSpace=wrap;rounded=0;" vertex="1" parent="1">
          <mxGeometry x="10" y="305" width="100" height="30" as="geometry" />
        </mxCell>
        <mxCell id="fhB9XdhHFG8bIDAir9oc-36" value="&lt;div&gt;&amp;nbsp; &amp;nbsp; address private _owner;&lt;/div&gt;&lt;div&gt;&amp;nbsp; &amp;nbsp; string private _name;&lt;/div&gt;&lt;div&gt;&amp;nbsp; &amp;nbsp; string private _description;&lt;/div&gt;&lt;div&gt;&amp;nbsp; &amp;nbsp; string private _propertyAddress;&lt;/div&gt;&lt;div&gt;&amp;nbsp; &amp;nbsp; uint256 private _totalShares;&lt;/div&gt;&lt;div&gt;&amp;nbsp; &amp;nbsp; uint256 private _sharePrice;&lt;/div&gt;&lt;div&gt;&amp;nbsp; &amp;nbsp; uint256 private _remainingShares;&lt;/div&gt;&lt;div&gt;&amp;nbsp; &amp;nbsp; mapping (address =&amp;gt; uint256) private _shares;&lt;/div&gt;&lt;div&gt;&amp;nbsp; &amp;nbsp; mapping (address =&amp;gt; bool) private _approvedBuyers;&lt;/div&gt;" style="rounded=1;whiteSpace=wrap;html=1;direction=south;align=left;" vertex="1" parent="1">
          <mxGeometry x="970" y="310" width="310" height="230" as="geometry" />
        </mxCell>
        <mxCell id="fhB9XdhHFG8bIDAir9oc-37" value="getOwningShares()" style="rounded=0;whiteSpace=wrap;html=1;" vertex="1" parent="1">
          <mxGeometry x="810" y="345" width="110" height="20" as="geometry" />
        </mxCell>
        <mxCell id="fhB9XdhHFG8bIDAir9oc-41" style="edgeStyle=orthogonalEdgeStyle;rounded=0;orthogonalLoop=1;jettySize=auto;html=1;entryX=0.827;entryY=1.008;entryDx=0;entryDy=0;entryPerimeter=0;" edge="1" parent="1" target="fhB9XdhHFG8bIDAir9oc-36">
          <mxGeometry relative="1" as="geometry">
            <mxPoint x="260" y="500" as="sourcePoint" />
            <mxPoint x="820" y="500" as="targetPoint" />
          </mxGeometry>
        </mxCell>
        <mxCell id="fhB9XdhHFG8bIDAir9oc-42" value="buyShares()" style="rounded=0;whiteSpace=wrap;html=1;" vertex="1" parent="1">
          <mxGeometry x="810" y="440" width="110" height="20" as="geometry" />
        </mxCell>
        <mxCell id="fhB9XdhHFG8bIDAir9oc-43" value="sellShares()" style="rounded=0;whiteSpace=wrap;html=1;" vertex="1" parent="1">
          <mxGeometry x="810" y="475" width="110" height="20" as="geometry" />
        </mxCell>
        <mxCell id="fhB9XdhHFG8bIDAir9oc-45" value="Contract Controller" style="rounded=1;whiteSpace=wrap;html=1;direction=south;" vertex="1" parent="1">
          <mxGeometry x="690" y="330" width="80" height="50" as="geometry" />
        </mxCell>
      </root>
    </mxGraphModel>
  </diagram>
</mxfile>
